HIERARCHY
ROOT root
{
	OFFSET	0	13.1	24.9
	CHANNELS 6  Xposition Yposition Zposition Xrotation Yrotation Zrotation
	JOINT spine_1
	{
		OFFSET	0	9.99999	0
		CHANNELS 3  Xrotation Yrotation Zrotation
		JOINT spine_2
		{
			OFFSET	0	112	-10
			CHANNELS 3  Xrotation Yrotation Zrotation
			JOINT spine_3
			{
				OFFSET	0	206.5	19.3
				CHANNELS 3  Xrotation Yrotation Zrotation
				JOINT spine_4
				{
					OFFSET	0	110.4	14.6
					CHANNELS 3  Xrotation Yrotation Zrotation
					JOINT neck_1
					{
						OFFSET	0	71.8	-50.3
						CHANNELS 3  Xrotation Yrotation Zrotation
						JOINT neck_2
						{
							OFFSET	0	86.2	-25.8
							CHANNELS 3  Xrotation Yrotation Zrotation
							JOINT head_ee
							{
								OFFSET	0	179.8	-8.7
								CHANNELS 3  Xrotation Yrotation Zrotation
								End Site
								{
									OFFSET	1	0	0
								}
							}
						}
					}
					JOINT left_clavicle
					{
						OFFSET	-43.2	22.4	-70.8
						CHANNELS 3  Xrotation Yrotation Zrotation
						JOINT left_shoulder
						{
							OFFSET	-93.9	-5.79999	48.7
							CHANNELS 3  Xrotation Yrotation Zrotation
							JOINT left_elbow
							{
								OFFSET	-291.4	-30.8	15.2
								CHANNELS 3  Xrotation Yrotation Zrotation
								JOINT left_lowarm_twist
								{
									OFFSET	-110.7	-3.89999	13.6
									CHANNELS 3  Xrotation Yrotation Zrotation
									JOINT left_hand
									{
										OFFSET	-110.7	-3.89999	13.6
										CHANNELS 3  Xrotation Yrotation Zrotation
										JOINT left_ee
										{
											OFFSET	-80.8	-5.10001	12.1
											CHANNELS 3  Xrotation Yrotation Zrotation
											End Site
											{
												OFFSET	1	0	0
											}
										}
									}
								}
							}
						}
					}
					JOINT right_clavicle
					{
						OFFSET	43.2	22.4	-70.8
						CHANNELS 3  Xrotation Yrotation Zrotation
						JOINT right_shoulder
						{
							OFFSET	93.9	-5.79999	48.7
							CHANNELS 3  Xrotation Yrotation Zrotation
							JOINT right_elbow
							{
								OFFSET	291.4	-30.8	15.2
								CHANNELS 3  Xrotation Yrotation Zrotation
								JOINT right_lowarm_twist
								{
									OFFSET	110.7	-3.89999	13.6
									CHANNELS 3  Xrotation Yrotation Zrotation
									JOINT right_hand
									{
										OFFSET	110.7	-3.89999	13.6
										CHANNELS 3  Xrotation Yrotation Zrotation
										JOINT right_ee
										{
											OFFSET	80.8	-5.10001	12.1
											CHANNELS 3  Xrotation Yrotation Zrotation
											End Site
											{
												OFFSET	1	0	0
											}
										}
									}
								}
							}
						}
					}
				}
			}
		}
	}
	JOINT left_hip
	{
		OFFSET	-82.8	-127.5	0.300001
		CHANNELS 3  Xrotation Yrotation Zrotation
		JOINT left_knee
		{
			OFFSET	-28.2	-396.7	2.2
			CHANNELS 3  Xrotation Yrotation Zrotation
			JOINT left_ankle
			{
				OFFSET	-11.7	-411.3	35.4
				CHANNELS 3  Xrotation Yrotation Zrotation
				JOINT left_toes
				{
					OFFSET	0	-60	-88.6
					CHANNELS 3  Xrotation Yrotation Zrotation
					JOINT left_foot_ee
					{
						OFFSET	-22.5	-16.5	-42.2
						CHANNELS 3  Xrotation Yrotation Zrotation
						End Site
						{
							OFFSET	1	0	0
						}
					}
				}
			}
		}
	}
	JOINT right_hip
	{
		OFFSET	82.8	-127.5	0.300001
		CHANNELS 3  Xrotation Yrotation Zrotation
		JOINT right_knee
		{
			OFFSET	28.2	-396.7	2.2
			CHANNELS 3  Xrotation Yrotation Zrotation
			JOINT right_ankle
			{
				OFFSET	11.7	-411.3	35.4
				CHANNELS 3  Xrotation Yrotation Zrotation
				JOINT right_toes
				{
					OFFSET	0	-60	-88.6
					CHANNELS 3  Xrotation Yrotation Zrotation
					JOINT right_foot_ee
					{
						OFFSET	22.5	-16.5	-42.2
						CHANNELS 3  Xrotation Yrotation Zrotation
						End Site
						{
							OFFSET	1	0	0
						}
					}
				}
			}
		}
	}
}
MOTION
Frames: 8
Frame Time: 0.02
1041.4 574.639 -1682.42 -3.11123642178 44.9049869946 9.792533482 1.8086 -0.180444 -2.01634 1.81087 -0.0518007 -2.02373 1.81269 0.311695 -2.00026 1.80711 -0.00805323 -2.02438 -10.9986 -6.32536 6.15455 -10.9902 -16.0042 4.28415 -0.0 0.0 -0.0 11.5821 -26.0987 22.4183 -14.1042 -30.0068 68.1827 0.488729 -13.6097 0.0583198 34.9293 -0.112119 -4.39225 -6.94608 -9.31809 -61.8958 -0.0 0.0 -0.0 3.56513 -11.9595 -7.4051 36.9316 -34.9994 -72.8764 0.712967 19.4524 -0.122207 85.2028 4.45082 8.87544 -3.99563 -28.9635 10.2338 0.0 0.0 0.0 33.0234 -20.4463 -4.2234 -12.078 0.305911 1.82489 10.3081 23.7089 -1.52133 -28.2782 0.0 0.0 -0.0 0.0 -0.0 1.72976 13.3138 -14.8228 -15.4319 -0.322068 -2.33915 40.5455 -23.6888 5.17839 40.1585 -0.0 -0.0 0.0 0.0 0.0 
1041.4 574.639 -1682.42 -3.14028730948 45.433826328 9.83349626739 1.8086 -0.180444 -2.01634 1.81087 -0.0518007 -2.02373 1.81269 0.311695 -2.00026 1.80711 -0.00805323 -2.02438 -10.9986 -6.32536 6.15455 -10.9902 -16.0042 4.28415 -0.0 0.0 -0.0 11.5821 -26.0987 22.4183 -14.1042 -30.0068 68.1827 0.488729 -13.6097 0.0583198 34.9293 -0.112119 -4.39225 -6.94608 -9.31809 -61.8958 -0.0 0.0 -0.0 3.56513 -11.9595 -7.4051 36.9316 -34.9994 -72.8764 0.712967 19.4524 -0.122207 85.2028 4.45082 8.87544 -3.99563 -28.9635 10.2338 0.0 0.0 0.0 33.0234 -20.4463 -4.2234 -12.078 0.305911 1.82489 10.3081 23.7089 -1.52133 -28.2782 0.0 0.0 -0.0 0.0 -0.0 1.72976 13.3138 -14.8228 -15.4319 -0.322068 -2.33915 40.5455 -23.6888 5.17839 40.1585 -0.0 -0.0 0.0 0.0 0.0 
1041.4 574.639 -1682.42 -3.18747252539 46.2625300002 9.89925822501 1.8086 -0.180444 -2.01634 1.81087 -0.0518007 -2.02373 1.81269 0.311695 -2.00026 1.80711 -0.00805323 -2.02438 -10.9986 -6.32536 6.15455 -10.9902 -16.0042 4.28415 -0.0 0.0 -0.0 11.5821 -26.0987 22.4183 -14.1042 -30.0068 68.1827 0.488729 -13.6097 0.0583198 34.9293 -0.112119 -4.39225 -6.94608 -9.31809 -61.8958 -0.0 0.0 -0.0 3.56513 -11.9595 -7.4051 36.9316 -34.9994 -72.8764 0.712967 19.4524 -0.122207 85.2028 4.45082 8.87544 -3.99563 -28.9635 10.2338 0.0 0.0 0.0 33.0234 -20.4463 -4.2234 -12.078 0.305911 1.82489 10.3081 23.7089 -1.52133 -28.2782 0.0 0.0 -0.0 0.0 -0.0 1.72976 13.3138 -14.8228 -15.4319 -0.322068 -2.33915 40.5455 -23.6888 5.17839 40.1585 -0.0 -0.0 0.0 0.0 0.0 
1041.4 574.639 -1682.42 -3.17257359679 46.0047732419 9.87859282455 1.8086 -0.180444 -2.01634 1.81087 -0.0518007 -2.02373 1.81269 0.311695 -2.00026 1.80711 -0.00805323 -2.02438 -10.9986 -6.32536 6.15455 -10.9902 -16.0042 4.28415 -0.0 0.0 -0.0 11.5821 -26.0987 22.4183 -14.1042 -30.0068 68.1827 0.488729 -13.6097 0.0583198 34.9293 -0.112119 -4.39225 -6.94608 -9.31809 -61.8958 -0.0 0.0 -0.0 3.56513 -11.9595 -7.4051 36.9316 -34.9994 -72.8764 0.712967 19.4524 -0.122207 85.2028 4.45082 8.87544 -3.99563 -28.9635 10.2338 0.0 0.0 0.0 33.0234 -20.4463 -4.2234 -12.078 0.305911 1.82489 10.3081 23.7089 -1.52133 -28.2782 0.0 0.0 -0.0 0.0 -0.0 1.72976 13.3138 -14.8228 -15.4319 -0.322068 -2.33915 40.5455 -23.6888 5.17839 40.1585 -0.0 -0.0 0.0 0.0 0.0 
1041.4 574.639 -1682.42 -3.19077796444 46.3192394266 9.90383096572 1.8086 -0.180444 -2.01634 1.81087 -0.0518007 -2.02373 1.81269 0.311695 -2.00026 1.80711 -0.00805323 -2.02438 -10.9986 -6.32536 6.15455 -10.9902 -16.0042 4.28415 -0.0 0.0 -0.0 11.5821 -26.0987 22.4183 -14.1042 -30.0068 68.1827 0.488729 -13.6097 0.0583198 34.9293 -0.112119 -4.39225 -6.94608 -9.31809 -61.8958 -0.0 0.0 -0.0 3.56513 -11.9595 -7.4051 36.9316 -34.9994 -72.8764 0.712967 19.4524 -0.122207 85.2028 4.45082 8.87544 -3.99563 -28.9635 10.2338 0.0 0.0 0.0 33.0234 -20.4463 -4.2234 -12.078 0.305911 1.82489 10.3081 23.7089 -1.52133 -28.2782 0.0 0.0 -0.0 0.0 -0.0 1.72976 13.3138 -14.8228 -15.4319 -0.322068 -2.33915 40.5455 -23.6888 5.17839 40.1585 -0.0 -0.0 0.0 0.0 0.0 
1041.4 574.639 -1682.42 -3.19656207265 46.4180634419 9.91182233144 1.8086 -0.180444 -2.01634 1.81087 -0.0518007 -2.02373 1.81269 0.311695 -2.00026 1.80711 -0.00805323 -2.02438 -10.9986 -6.32536 6.15455 -10.9902 -16.0042 4.28415 -0.0 0.0 -0.0 11.5821 -26.0987 22.4183 -14.1042 -30.0068 68.1827 0.488729 -13.6097 0.0583198 34.9293 -0.112119 -4.39225 -6.94608 -9.31809 -61.8958 -0.0 0.0 -0.0 3.56513 -11.9595 -7.4051 36.9316 -34.9994 -72.8764 0.712967 19.4524 -0.122207 85.2028 4.45082 8.87544 -3.99563 -28.9635 10.2338 0.0 0.0 0.0 33.0234 -20.4463 -4.2234 -12.078 0.305911 1.82489 10.3081 23.7089 -1.52133 -28.2782 0.0 0.0 -0.0 0.0 -0.0 1.72976 13.3138 -14.8228 -15.4319 -0.322068 -2.33915 40.5455 -23.6888 5.17839 40.1585 -0.0 -0.0 0.0 0.0 0.0 
1019.21680501 574.628 -1688.25222598 -1.75906753546 45.5427301345 8.20818247877 1.68723 -0.06878 -1.97408 1.6894 0.0569503 -1.97446 1.68744 0.414135 -1.93139 1.68225 0.103972 -1.97254 -11.4441 -8.48985 5.33131 -11.5399 -19.5332 2.80664 -0.0 0.0 -0.0 11.6435 -26.4427 22.5188 -14.2402 -28.7758 69.0499 0.510002 -14.1787 0.0634283 35.6848 -0.144047 -4.4834 -6.65757 -11.0105 -59.217 -0.0 0.0 -0.0 2.97316 -13.2567 -6.46278 34.2056 -37.0318 -74.6471 0.81495 21.9839 -0.158294 85.3982 4.47426 8.88433 -3.73743 -29.4967 8.49604 0.0 0.0 0.0 33.7497 -20.7416 -3.72827 -16.0407 0.321772 2.43255 5.56064 15.3233 -0.808067 -26.7064 0.0 0.0 -0.0 0.0 -0.0 0.508044 12.1923 -13.3285 -17.7766 -0.315478 -2.69881 37.812 -25.4539 4.96692 40.2189 -0.0 -0.0 0.0 0.0 0.0 
1019.12843284 574.628 -1687.90509766 -1.78773232744 46.437080162 8.24803679606 1.68723 -0.06878 -1.97408 1.6894 0.0569503 -1.97446 1.68744 0.414135 -1.93139 1.68225 0.103972 -1.97254 -11.4441 -8.48985 5.33131 -11.5399 -19.5332 2.80664 -0.0 0.0 -0.0 11.6435 -26.4427 22.5188 -14.2402 -28.7758 69.0499 0.510002 -14.1787 0.0634283 35.6848 -0.144047 -4.4834 -6.65757 -11.0105 -59.217 -0.0 0.0 -0.0 2.97316 -13.2567 -6.46278 34.2056 -37.0318 -74.6471 0.81495 21.9839 -0.158294 85.3982 4.47426 8.88433 -3.73743 -29.4967 8.49604 0.0 0.0 0.0 33.7497 -20.7416 -3.72827 -16.0407 0.321772 2.43255 5.56064 15.3233 -0.808067 -26.7064 0.0 0.0 -0.0 0.0 -0.0 0.508044 12.1923 -13.3285 -17.7766 -0.315478 -2.69881 37.812 -25.4539 4.96692 40.2189 -0.0 -0.0 0.0 0.0 0.0 
